# xmcd
#
# Track frame offsets: 
#        150
#        20407
#        38423
#        58918
#        68414
#        88190
#        102510
#        120038
#        129873
#        147610
#        162630
#        185671
#        205625
#        226842
#        245322
#        274201
#        284602
#        299524
#
# Disc length: 4245 seconds
#
# Revision: 5
# Processed by: cddbd v1.4PL0 Copyright (c) Steve Scherf et al.
# Submitted via: ExactAudioCopy v0.90b3
#
DISCID=08109312
DTITLE=Moby - 18
DYEAR=1900
DGENRE=Electronic
TTITLE0=We Are All Made of Stars
TTITLE1=In This World
TTITLE2=In My Heart
TTITLE3=Great Escape
TTITLE4=Signs of Love
TTITLE5=One of These Mornings
TTITLE6=Another Woman
TTITLE7=Fireworks
TTITLE8=Extreme Ways
TTITLE9=Jam for the Ladies
TTITLE10=Sunday (The Day Before My Birthday)
TTITLE11=18
TTITLE12=Sleep Alone
TTITLE13=At Least We Tried
TTITLE14=Harbour
TTITLE15=Look Back In
TTITLE16=The Rafters
TTITLE17=I'm Not Worried at All
EXTD=
EXTT0=
EXTT1=
EXTT2=
EXTT3=
EXTT4=
EXTT5=
EXTT6=
EXTT7=
EXTT8=
EXTT9=
EXTT10=
EXTT11=
EXTT12=
EXTT13=
EXTT14=
EXTT15=
EXTT16=
EXTT17=
PLAYORDER=
